<?xml version="1.0" standalone="no"?>
<!DOCTYPE svg PUBLIC "-//W3C//DTD SVG 20010904//EN"
 "http://www.w3.org/TR/2001/REC-SVG-20010904/DTD/svg10.dtd">
<svg version="1.0" xmlns="http://www.w3.org/2000/svg"
 width="500.000000pt" height="500.000000pt" viewBox="0 0 500.000000 500.000000"
 preserveAspectRatio="xMidYMid meet">
<metadata>
Created by potrace 1.11, written by Peter Selinger 2001-2013
</metadata>
<g transform="translate(0.000000,500.000000) scale(0.100000,-0.100000)"
fill="#000000" stroke="none">
<path d="M1521 4418 c-16 -51 -75 -237 -131 -413 -56 -176 -131 -412 -167
-525 -36 -113 -78 -248 -95 -300 -16 -52 -36 -113 -45 -135 -8 -22 -14 -40
-13 -40 2 0 -23 -81 -55 -180 -31 -99 -72 -227 -90 -285 -18 -58 -63 -199
-100 -315 -37 -115 -75 -237 -85 -270 -11 -33 -40 -123 -64 -200 -67 -210
-181 -567 -246 -775 -54 -173 -86 -272 -131 -414 -10 -33 -19 -63 -19 -68 0
-4 263 -8 584 -8 l584 0 23 67 c13 38 24 70 24 73 2 8 75 240 82 255 4 13 -46
15 -371 15 -222 0 -376 4 -376 9 0 9 23 82 120 386 73 226 143 449 146 460 1
6 37 118 79 250 42 132 89 281 105 330 37 118 156 492 183 575 11 36 22 70 23
75 1 6 9 30 17 55 8 25 41 126 72 225 66 209 170 538 225 710 l39 120 379 3
378 2 62 198 c34 108 62 200 62 205 0 4 -263 7 -584 7 l-584 0 -31 -92z"/>
<path d="M3490 4318 c-34 -106 -63 -199 -65 -205 -4 -10 75 -13 370 -13 208 0
375 -4 375 -9 0 -8 -396 -1265 -508 -1611 -25 -80 -47 -147 -47 -150 -1 -5
-56 -179 -134 -425 -77 -239 -149 -471 -156 -495 -3 -14 -10 -34 -15 -45 -7
-17 -64 -194 -129 -405 l-17 -55 -380 -3 -380 -2 -39 -123 c-21 -67 -51 -159
-66 -205 l-28 -82 591 2 591 3 13 40 c7 22 52 164 99 315 84 267 116 367 191
603 20 61 37 117 38 122 2 9 84 266 146 460 35 109 82 256 206 650 52 165 124
390 159 500 35 110 78 245 95 300 74 235 244 770 281 883 21 68 39 127 39 132
0 6 -220 10 -585 10 l-584 0 -61 -192z"/>
<path d="M1981 2700 c-14 -9 -130 -394 -121 -400 11 -7 1157 -7 1163 0 3 3 14
34 25 70 11 36 39 123 61 195 23 71 41 132 41 135 0 7 -1159 7 -1169 0z"/>
</g>
</svg>
